<?xml version="1.0" standalone="no"?>
<!DOCTYPE svg PUBLIC "-//W3C//DTD SVG 20010904//EN"
 "http://www.w3.org/TR/2001/REC-SVG-20010904/DTD/svg10.dtd">
<svg version="1.0" xmlns="http://www.w3.org/2000/svg"
 width="200.000000pt" height="200.000000pt" viewBox="0 0 200.000000 200.000000"
 preserveAspectRatio="xMidYMid meet">

<g transform="translate(0.000000,200.000000) scale(0.100000,-0.100000)"
fill="#000000" stroke="none">
<path d="M0 1921 c0 -50 4 -83 12 -87 7 -4 8 -3 4 5 -9 15 41 94 54 86 5 -3
12 0 16 6 5 8 3 9 -7 4 -11 -7 -12 -6 -2 6 6 8 26 22 45 33 l33 18 -30 -27
-30 -27 30 20 c17 10 44 24 60 29 24 8 8 10 -77 12 l-108 2 0 -80z"/>
<path d="M1452 1980 c-11 -11 -29 -20 -38 -20 -9 0 -49 -15 -88 -34 -39 -18
-82 -37 -95 -41 -14 -4 -34 -16 -45 -26 -11 -11 -27 -19 -35 -20 -9 0 17 -9
58 -19 233 -62 444 -236 547 -455 66 -140 78 -197 78 -365 0 -173 -12 -229
-84 -375 -84 -169 -208 -293 -375 -375 -147 -72 -203 -84 -375 -85 -121 0
-158 4 -223 23 -155 44 -330 155 -420 265 -53 65 -123 180 -143 238 -10 27
-22 49 -27 49 -4 0 -6 4 -3 8 3 5 1 22 -4 38 l-8 29 -1 -33 c-1 -18 3 -42 9
-52 11 -21 3 -53 -11 -44 -5 3 -9 0 -9 -5 0 -6 5 -11 10 -11 6 0 10 -8 10 -17
0 -14 -2 -15 -9 -5 -6 10 -13 3 -23 -25 -28 -68 -66 -226 -73 -298 -4 -38 -12
-76 -18 -83 -7 -9 -7 -16 2 -25 10 -9 11 -8 6 5 -4 10 -3 18 3 18 8 0 9 -14 3
-38 -1 -1 -10 2 -22 8 -22 12 -49 -1 -49 -24 0 -6 5 -3 11 6 5 10 15 18 21 18
6 0 5 -7 -3 -17 -13 -16 -12 -17 4 -4 15 12 17 11 17 -15 0 -23 2 -26 11 -14
8 12 9 10 4 -9 -5 -15 -3 -21 3 -17 15 9 6 -34 -9 -48 -9 -8 -10 -8 -5 2 4 7
2 19 -4 27 -7 8 -9 15 -4 15 4 0 -2 9 -14 20 -12 11 -24 20 -27 20 -3 0 -5
-38 -5 -85 l0 -85 1000 0 1000 0 0 1000 0 999 -263 1 c-250 0 -264 -1 -285
-20z m-1342 -1915 c0 -2 -6 -5 -13 -8 -8 -3 -14 1 -14 8 0 7 6 11 14 8 7 -3
13 -6 13 -8z m24 -44 c-2 -3 -12 3 -22 13 -16 17 -16 18 5 5 12 -7 20 -15 17
-18z"/>
<path d="M43 1888 c-15 -20 -25 -38 -20 -38 3 0 12 11 21 25 17 26 16 35 -1
13z"/>
<path d="M1098 1843 c7 -3 16 -2 19 1 4 3 -2 6 -13 5 -11 0 -14 -3 -6 -6z"/>
<path d="M997 1793 c18 -2 50 -2 70 0 21 2 7 4 -32 4 -38 0 -55 -2 -38 -4z"/>
<path d="M1090 1783 c-19 -3 -39 -9 -44 -14 -6 -5 -16 -9 -23 -9 -8 0 -23 -9
-35 -20 -12 -11 -30 -20 -41 -20 -10 0 -21 -9 -24 -20 -3 -11 -11 -20 -18 -20
-7 0 -24 -10 -38 -22 -23 -21 -62 -54 -124 -107 -13 -10 -23 -24 -23 -30 0 -8
-8 -10 -22 -7 l-23 6 23 -11 c12 -7 22 -16 22 -21 0 -12 -13 -10 -38 8 -13 9
-26 14 -29 11 -4 -5 68 -47 81 -47 3 0 3 7 -1 16 -5 13 -2 15 15 9 14 -4 22
-2 22 5 0 8 7 9 18 5 38 -15 55 -13 73 8 19 22 19 22 3 -16 -8 -22 -11 -36 -5
-33 5 4 14 -1 19 -9 7 -14 35 -11 249 29 288 55 300 56 314 19 7 -18 9 -170 7
-438 -3 -406 -4 -411 -26 -447 -44 -72 -160 -99 -248 -59 -47 22 -70 50 -85
104 -9 33 -7 45 13 85 34 69 82 94 173 89 39 -2 78 -7 88 -11 16 -8 17 6 17
216 0 170 -3 229 -13 242 -13 18 -24 16 -248 -29 -160 -32 -238 -52 -246 -63
-10 -12 -13 -95 -13 -337 0 -362 -1 -370 -76 -412 -83 -47 -168 -38 -238 27
-38 36 -41 42 -41 94 0 67 22 101 85 134 52 26 115 29 167 7 19 -8 36 -15 37
-15 6 0 -1 628 -8 638 -6 11 -13 7 -27 -15 -13 -19 -19 -23 -19 -11 0 9 5 20
10 23 6 3 10 11 10 16 0 6 -4 7 -10 4 -5 -3 -10 1 -10 10 0 9 -4 14 -9 11 -10
-6 -25 39 -22 65 2 17 -46 55 -57 44 -4 -3 0 -11 8 -16 13 -9 13 -10 -1 -6
-17 6 -41 -15 -104 -88 -22 -25 -57 -65 -77 -88 -21 -23 -49 -66 -64 -94 -14
-29 -29 -53 -34 -53 -4 0 -10 -10 -14 -23 -3 -12 -14 -32 -26 -44 -11 -12 -20
-27 -20 -32 0 -6 -8 -15 -17 -20 -10 -6 -14 -11 -9 -11 5 0 4 -6 -2 -13 -6 -7
-13 -26 -16 -42 -3 -17 -15 -38 -27 -47 -16 -13 -20 -25 -15 -43 9 -37 -2 -31
-13 8 -10 29 -10 28 -5 -13 8 -63 66 -208 110 -277 106 -166 284 -293 482
-344 103 -26 281 -26 384 0 291 75 514 297 588 585 27 107 28 283 1 388 -61
239 -228 440 -446 538 -59 26 -174 61 -195 58 -8 0 -31 -3 -50 -5z"/>
<path d="M166 717 c3 -10 9 -15 12 -12 3 3 0 11 -7 18 -10 9 -11 8 -5 -6z"/>
</g>
</svg>
